<?xml version="1.0" encoding="utf-8"?>
<!-- Generator: Adobe Illustrator 25.1.0, SVG Export Plug-In . SVG Version: 6.00 Build 0)  -->
<svg version="1.1" id="Capa_1" xmlns="http://www.w3.org/2000/svg" xmlns:xlink="http://www.w3.org/1999/xlink" x="0px" y="0px"
	 viewBox="0 0 158.54 127.05" enable-background="new 0 0 158.54 127.05" xml:space="preserve">
<path d="M108.76,123.38c-0.24,1.63-1.64,2.6-3.34,2.93c-2.54,0.49-5.13,0.96-7.7,0.98c-7.68,0.05-15.35-0.07-23.03-0.25
	c-1.32-0.03-2.66-0.52-3.92-0.98c-1.24-0.46-1.49-1.71-0.48-2.57c0.79-0.67,1.83-1.28,2.83-1.4c2.73-0.34,5.48-0.4,8.23-0.57
	c0.4-0.02,0.79,0,1.45,0c-5.2-2.21-7.29-6.54-8.81-11.32c-0.14-0.44-0.56-0.86-0.95-1.14c-3.66-2.57-7.35-5.1-10.98-7.62
	c0.69-2.57,1.4-5.06,2.01-7.57c1-4.2,0.49-8.17-1.99-11.81c-0.24-0.36-0.45-0.76-0.59-1.17c-0.67-1.99-0.42-2.71,1.6-3
	c3.36-0.49,4.95-2.78,6.22-5.49c0.18-0.38,0.19-0.99,0.01-1.37c-1-2.2-1.55-4.49-1.69-6.91c-0.09-1.55-0.9-2.83-2.1-3.78
	c-1.53-1.21-3.18-2.27-4.72-3.47c-0.56-0.44-1.18-1.04-1.34-1.68c-0.44-1.73-0.66-3.53-0.96-5.3c-0.05-0.31-0.09-0.62-0.13-0.92
	c-4.63,0.14-7.51,2.53-8.43,6.89c-0.09,0.44-0.47,0.9-0.84,1.2c-2.33,1.89-4.83,3.64-6.08,6.5c-0.68,1.56-1.25,3.21-1.58,4.87
	c-0.46,2.31-1.38,4.32-2.92,6.07c-2.08,2.36-4.15,4.73-6.36,7.26c-1.08-1.25-2.03-2.26-2.89-3.34c-3.81-4.81-5.76-10.18-5.59-16.42
	c0.16-6.19-0.11-12.39-0.18-18.58c-0.03-2.84,0.11-5.68-0.09-8.5c-0.21-2.9-1.25-5.59-2.73-8.11c-0.64-1.09-1.37-1.43-2.65-1.15
	c-2.26,0.5-4.55,0.9-6.85,1.15c-2.51,0.27-4.73-0.6-6.59-2.31c-0.49-0.45-0.96-1-1.24-1.6c-1.08-2.27-2.05-4.58-3.11-6.85
	c-0.51-1.08-0.25-1.92,0.77-2.4c1.69-0.81,3.41-1.57,5.16-2.24c3.29-1.25,6.19-3.02,8.17-6c1.81-2.72,4.39-4.07,7.51-4.67
	c3.64-0.7,7.27-1.05,10.95-0.33c5.61,1.09,9.54,4.43,12.46,9.16c3.19,5.16,5.28,10.78,6.4,16.7c2.22,11.76,8.94,20.68,17.64,28.36
	c7.78,6.86,16.49,12.49,24.99,18.4c5.32,3.71,10.16,7.92,13.71,13.43c3.14,4.88,4.99,10.16,5.01,16.02c0.01,2.24,0.1,4.48,0.11,6.72
	c0.02,2.66,1.27,4.64,3.68,5.52c2.79,1.02,5.7,1.81,8.63,2.37c5.14,0.99,10.34,1.01,15.53,0.35c4.26-0.54,7.86-2.57,11.23-5.08
	c1.09-0.81,2.13-1.7,3.22-2.51c0.48-0.35,0.99-0.77,1.55-0.87c0.46-0.08,1.14,0.12,1.44,0.46c0.24,0.26,0.17,0.96,0.01,1.38
	c-0.18,0.46-0.58,0.85-0.94,1.23c-5.37,5.8-11.55,10.31-19.63,11.28c-3.76,0.45-7.58,0.53-11.37,0.51
	C120.59,123.79,114.73,123.54,108.76,123.38z"/>
<path d="M47.83,102.95c0.2,0.38,0.4,0.76,0.61,1.13c2.34,4.36,1.9,9.04-1.31,12.84c-1.59,1.88-3.31,3.65-5.25,5.78
	c4.86-0.88,8.86,0.41,12.41,3.14c-0.02,0.17-0.04,0.33-0.06,0.5c-0.43,0.09-0.87,0.24-1.3,0.25c-7.83,0.26-15.67,0.57-23.5,0.72
	c-3.83,0.08-7.66-0.13-11.49-0.23c-1.23-0.03-2.17-0.67-3.05-1.49c-4.44-4.15-6.66-9.38-7.52-15.29c-0.9-6.15,0.51-11.99,2.28-17.8
	c0.67-2.2,1.27-4.47,1.52-6.75c0.3-2.63-0.43-3.46-2.9-4.39c-3.18-1.2-3.68-2.66-1.93-5.65c0.18-0.31,0.37-0.62,0.59-0.9
	c1.66-2.21,3.67-3.78,6.62-3.08c3.06,0.72,4.72,2.87,5.3,5.86c0.6,3.12,0.01,6.15-1.13,9.04c-1.4,3.53-2.99,6.98-4.45,10.48
	c-2.67,6.37-2.45,12.79-0.12,19.19c0.79,2.16,2.16,3.96,4.34,5.54c0.08-0.86,0.25-1.47,0.18-2.05c-0.27-2.1-0.62-4.19-0.93-6.28
	c-1.11-7.38,0.27-14.16,5.42-19.75c3.95-4.29,8.23-8.27,12.28-12.47c2.05-2.12,3.96-4.39,5.86-6.65c1.3-1.55,2.2-3.34,2.46-5.39
	c0.62-4.94,3.42-8.42,7.42-11.08c0.83-0.55,1.21-1.18,1.33-2.2c0.35-2.86,2.7-5.07,5.53-5.32c0.24,1.32,0.48,2.64,0.73,3.97
	c0.33,1.73,1.06,3.15,2.84,3.86c0.69,0.28,1.27,0.82,1.92,1.22c2.65,1.65,4.02,3.92,4,7.14c-0.01,1.28,0.69,2.59,1.18,3.84
	c0.27,0.69,0.15,1.15-0.11,1.85c-0.96,2.67-3.04,3.62-5.55,4.1c-0.43,0.08-0.83,0.28-1.25,0.42c-0.74,0.26-1.03,0.74-1.02,1.55
	c0.02,1.72,0.39,3.27,1.38,4.74c2.03,3.03,2.46,6.44,1.55,9.89c-0.89,3.38-2.17,6.67-3.24,10.01c-0.57,1.78-1.35,3.56-1.53,5.38
	c-0.41,4.2-0.99,8.44,0.72,12.55c0.37,0.89,0.81,1.39,1.78,1.69c0.9,0.28,1.8,0.89,2.43,1.59c0.92,1.02,0.58,2.42-0.74,2.61
	c-1.94,0.29-3.95,0.2-5.92,0.05c-0.48-0.04-1.09-0.83-1.32-1.4c-1.39-3.49-2.73-7-4-10.53c-0.28-0.77-0.25-1.65-0.3-2.49
	c-0.09-1.52-0.18-3.04-0.18-4.55C50.41,106,49.46,104.33,47.83,102.95z"/>
<path d="M45.95,120.59c1.09-1.3,2.33-2.78,3.65-4.36c0.84,2.12,1.67,4.2,2.55,6.41C49.95,121.91,47.93,121.24,45.95,120.59z"/>
</svg>
