<?xml version="1.0" encoding="utf-8"?>
<!-- Generator: Adobe Illustrator 25.1.0, SVG Export Plug-In . SVG Version: 6.00 Build 0)  -->
<svg version="1.1" id="Capa_1" xmlns="http://www.w3.org/2000/svg" xmlns:xlink="http://www.w3.org/1999/xlink" x="0px" y="0px"
	 viewBox="0 0 287.28 408.82" enable-background="new 0 0 287.28 408.82" xml:space="preserve">
<path fill="#E40027" d="M143.59,0.02c20.2-0.36,39.52,3.83,57.88,12.02c29.3,13.08,51.93,33.71,67.66,61.7
	c8.64,15.36,14.09,31.82,16.59,49.35c4.26,29.81-0.16,58.19-13.8,84.93c-8.43,16.54-18.88,31.96-28.49,47.83
	c-28.78,47.53-57.64,95.01-86.4,142.55c-2.48,4.1-5.17,7.82-9.46,10.14c-1.33,0-2.66,0-3.99,0c-1.37-1.53-1.29-3.44-1.29-5.29
	c-0.02-60.9-0.03-121.8,0-182.7c0-1.33,0.02-2.66,0.37-3.95c0.7-2.31,2.79-2.26,4.56-2.46c7.69-0.85,15.32-1.93,22.49-5.01
	c25.62-11.01,40.41-30.28,43.86-58.02c2.35-18.93-2.86-35.92-14.45-50.77c-12.26-15.7-28.47-24.82-48.48-26.92
	c-2.73-0.29-6.01,0.35-7.89-2.71c-0.42-1.29-0.44-2.61-0.44-3.94c-0.03-20.51-0.03-41.01,0.01-61.52
	C142.32,3.44,142.13,1.51,143.59,0.02z"/>
<path fill="#FC003A" d="M143.59,215.51c0,64.35,0,128.69-0.01,193.04c-1.06,0-2.13,0-3.19,0c-4.29-2.22-6.79-6-9.23-10
	C95,339.26,58.86,279.96,22.51,220.79c-14.84-24.15-22.89-50.15-22.5-78.53c0.46-33.57,11.15-63.7,32.52-89.58
	C56.15,24.1,86.5,6.89,123.35,1.47c6.72-0.99,13.46-1.42,20.25-1.45c0,23.86,0,47.72,0,71.57c-2.62,2.05-5.86,1.37-8.79,1.78
	c-32.35,4.46-56.96,29.1-61.32,61.31c-5.17,38.14,22.38,74.24,60.93,79.02C137.46,214.08,140.83,213.44,143.59,215.51z"/>
</svg>
